<mxfile host="app.diagrams.net" modified="2023-08-11T13:45:28.462Z" agent="Mozilla/5.0 (Windows NT 10.0; Win64; x64; rv:109.0) Gecko/20100101 Firefox/116.0" etag="UgUHLF5lJvQDHbk8irf5" version="21.6.8" type="device">
  <diagram name="Page-1" id="wQFDFPFw8uUI844PwRsQ">
    <mxGraphModel dx="794" dy="461" grid="1" gridSize="10" guides="1" tooltips="1" connect="1" arrows="1" fold="1" page="1" pageScale="1" pageWidth="827" pageHeight="1169" math="1" shadow="0">
      <root>
        <mxCell id="0" />
        <mxCell id="1" parent="0" />
        <mxCell id="P5eFKpgBpRfASFoSdlE7-72" value="&lt;div&gt;`r = 1`&lt;/div&gt;" style="rounded=0;whiteSpace=wrap;html=1;fillColor=#fff2cc;strokeColor=#d6b656;fontStyle=1;fontSize=23;labelPosition=center;verticalLabelPosition=middle;align=right;verticalAlign=middle;" parent="1" vertex="1">
          <mxGeometry x="164" y="90" width="299" height="60" as="geometry" />
        </mxCell>
        <mxCell id="P5eFKpgBpRfASFoSdlE7-73" value="`r = 0.5`" style="rounded=0;whiteSpace=wrap;html=1;fillColor=#fff2cc;strokeColor=#d6b656;fontStyle=1;fontSize=20;align=right;" parent="1" vertex="1">
          <mxGeometry x="144" y="100" width="168" height="60" as="geometry" />
        </mxCell>
        <mxCell id="P5eFKpgBpRfASFoSdlE7-12" value="" style="rounded=1;whiteSpace=wrap;html=1;fillColor=#d5e8d4;strokeColor=#82b366;" parent="1" vertex="1">
          <mxGeometry x="14" y="210" width="526" height="150" as="geometry" />
        </mxCell>
        <mxCell id="P5eFKpgBpRfASFoSdlE7-2" value="" style="rounded=0;whiteSpace=wrap;html=1;fillColor=#dae8fc;strokeColor=#6c8ebf;fontSize=23;fontStyle=1;labelPosition=center;verticalLabelPosition=top;align=center;verticalAlign=bottom;" parent="1" vertex="1">
          <mxGeometry x="490" y="93" width="159" height="60" as="geometry" />
        </mxCell>
        <mxCell id="P5eFKpgBpRfASFoSdlE7-20" value="&lt;b&gt;(Estimators, Featurizers)&lt;/b&gt;" style="swimlane;fontStyle=0;childLayout=stackLayout;horizontal=1;startSize=30;horizontalStack=0;resizeParent=1;resizeParentMax=0;resizeLast=0;collapsible=1;marginBottom=0;whiteSpace=wrap;html=1;separatorColor=#000000;fillColor=#E6E6E6;" parent="1" vertex="1">
          <mxGeometry x="34" y="215" width="146" height="140" as="geometry" />
        </mxCell>
        <mxCell id="P5eFKpgBpRfASFoSdlE7-21" value="`(\f_1, g_{demo})`" style="text;strokeColor=default;fillColor=none;align=center;verticalAlign=middle;spacingLeft=4;spacingRight=4;overflow=hidden;points=[[0,0.5],[1,0.5]];portConstraint=eastwest;rotatable=0;whiteSpace=wrap;html=1;" parent="P5eFKpgBpRfASFoSdlE7-20" vertex="1">
          <mxGeometry y="30" width="146" height="30" as="geometry" />
        </mxCell>
        <mxCell id="P5eFKpgBpRfASFoSdlE7-25" value="`(\f_2, X_{demo})`" style="text;strokeColor=none;fillColor=none;align=center;verticalAlign=middle;spacingLeft=4;spacingRight=4;overflow=hidden;points=[[0,0.5],[1,0.5]];portConstraint=eastwest;rotatable=0;whiteSpace=wrap;html=1;" parent="P5eFKpgBpRfASFoSdlE7-20" vertex="1">
          <mxGeometry y="60" width="146" height="30" as="geometry" />
        </mxCell>
        <mxCell id="P5eFKpgBpRfASFoSdlE7-22" value="`(\f_1, X_{emb-local})`" style="text;strokeColor=default;fillColor=none;align=center;verticalAlign=middle;spacingLeft=2;spacingRight=4;overflow=hidden;points=[[0,0.5],[1,0.5]];portConstraint=eastwest;rotatable=0;whiteSpace=wrap;html=1;" parent="P5eFKpgBpRfASFoSdlE7-20" vertex="1">
          <mxGeometry y="90" width="146" height="30" as="geometry" />
        </mxCell>
        <mxCell id="P5eFKpgBpRfASFoSdlE7-24" value="..." style="text;strokeColor=default;fillColor=none;align=left;verticalAlign=middle;spacingLeft=4;spacingRight=4;overflow=hidden;points=[[0,0.5],[1,0.5]];portConstraint=eastwest;rotatable=0;whiteSpace=wrap;html=1;" parent="P5eFKpgBpRfASFoSdlE7-20" vertex="1">
          <mxGeometry y="120" width="146" height="20" as="geometry" />
        </mxCell>
        <mxCell id="YQTOVVKo7JBdZTNxTnHK-5" style="edgeStyle=orthogonalEdgeStyle;rounded=0;orthogonalLoop=1;jettySize=auto;html=1;" parent="1" source="P5eFKpgBpRfASFoSdlE7-28" edge="1">
          <mxGeometry relative="1" as="geometry">
            <mxPoint x="90" y="90" as="targetPoint" />
          </mxGeometry>
        </mxCell>
        <mxCell id="P5eFKpgBpRfASFoSdlE7-28" value="" style="shape=image;html=1;verticalAlign=top;verticalLabelPosition=bottom;labelBackgroundColor=#ffffff;imageAspect=0;aspect=fixed;image=https://cdn4.iconfinder.com/data/icons/evil-icons-user-interface/64/download-128.png;fontColor=#000000;" parent="1" vertex="1">
          <mxGeometry x="54" y="100" width="80" height="80" as="geometry" />
        </mxCell>
        <mxCell id="P5eFKpgBpRfASFoSdlE7-30" value="" style="endArrow=block;html=1;rounded=0;strokeWidth=4;endFill=1;entryX=0.5;entryY=0;entryDx=0;entryDy=0;exitX=0.352;exitY=0.999;exitDx=0;exitDy=0;exitPerimeter=0;" parent="1" target="P5eFKpgBpRfASFoSdlE7-65" edge="1">
          <mxGeometry width="50" height="50" relative="1" as="geometry">
            <mxPoint x="218.144" y="169.94000000000005" as="sourcePoint" />
            <mxPoint x="350.00989690721644" y="177" as="targetPoint" />
          </mxGeometry>
        </mxCell>
        <mxCell id="P5eFKpgBpRfASFoSdlE7-31" value="&lt;div&gt;Sample increasing&lt;/div&gt;&lt;div&gt;&amp;nbsp;fractions `r`&lt;/div&gt;" style="edgeLabel;html=1;align=center;verticalAlign=middle;resizable=0;points=[];container=1;fontStyle=1;fontSize=15;" parent="P5eFKpgBpRfASFoSdlE7-30" vertex="1" connectable="0">
          <mxGeometry x="-0.5605" y="-1" relative="1" as="geometry">
            <mxPoint x="-123" y="-97" as="offset" />
          </mxGeometry>
        </mxCell>
        <mxCell id="P5eFKpgBpRfASFoSdlE7-33" value="&lt;b&gt;Effective train set&lt;br&gt;&lt;/b&gt;" style="text;html=1;strokeColor=none;fillColor=none;align=center;verticalAlign=middle;whiteSpace=wrap;rounded=0;fontSize=16;" parent="1" vertex="1">
          <mxGeometry x="227" y="162.5" width="153" height="40" as="geometry" />
        </mxCell>
        <mxCell id="P5eFKpgBpRfASFoSdlE7-36" value="" style="endArrow=block;html=1;rounded=0;exitX=0.973;exitY=0.024;exitDx=0;exitDy=0;endFill=1;strokeWidth=3;exitPerimeter=0;entryX=0.001;entryY=0.186;entryDx=0;entryDy=0;entryPerimeter=0;" parent="1" source="P5eFKpgBpRfASFoSdlE7-25" target="P5eFKpgBpRfASFoSdlE7-27" edge="1">
          <mxGeometry width="50" height="50" relative="1" as="geometry">
            <mxPoint x="384" y="190" as="sourcePoint" />
            <mxPoint x="133.99999999999977" y="274.2857142857142" as="targetPoint" />
          </mxGeometry>
        </mxCell>
        <mxCell id="P5eFKpgBpRfASFoSdlE7-37" value="Evaluate `(f, g)`" style="text;html=1;strokeColor=none;fillColor=none;align=center;verticalAlign=middle;whiteSpace=wrap;rounded=0;fontStyle=1;fontSize=26;" parent="1" vertex="1">
          <mxGeometry x="540" y="177.5" width="66" height="25" as="geometry" />
        </mxCell>
        <mxCell id="P5eFKpgBpRfASFoSdlE7-43" value="" style="endArrow=block;html=1;rounded=0;endFill=1;strokeWidth=6;exitX=1;exitY=0.5;exitDx=0;exitDy=0;exitPerimeter=0;edgeStyle=orthogonalEdgeStyle;curved=1;" parent="1" source="P5eFKpgBpRfASFoSdlE7-27" edge="1">
          <mxGeometry width="50" height="50" relative="1" as="geometry">
            <mxPoint x="420" y="335" as="sourcePoint" />
            <mxPoint x="510" y="180" as="targetPoint" />
          </mxGeometry>
        </mxCell>
        <mxCell id="P5eFKpgBpRfASFoSdlE7-64" value="" style="group" parent="1" vertex="1" connectable="0">
          <mxGeometry x="208" y="200" width="220" height="110" as="geometry" />
        </mxCell>
        <mxCell id="P5eFKpgBpRfASFoSdlE7-65" value="" style="rounded=0;whiteSpace=wrap;html=1;fillColor=#fa6800;strokeColor=#C73500;fontColor=#000000;" parent="P5eFKpgBpRfASFoSdlE7-64" vertex="1">
          <mxGeometry width="20.9" height="60" as="geometry" />
        </mxCell>
        <mxCell id="P5eFKpgBpRfASFoSdlE7-66" value="" style="rounded=0;whiteSpace=wrap;html=1;fillColor=#ffe6cc;strokeColor=#d79b00;" parent="P5eFKpgBpRfASFoSdlE7-64" vertex="1">
          <mxGeometry x="19" width="20.9" height="60" as="geometry" />
        </mxCell>
        <mxCell id="P5eFKpgBpRfASFoSdlE7-67" value="" style="rounded=0;whiteSpace=wrap;html=1;fillColor=#f0a30a;strokeColor=#BD7000;fontColor=#000000;" parent="P5eFKpgBpRfASFoSdlE7-64" vertex="1">
          <mxGeometry x="38" width="20.9" height="60" as="geometry" />
        </mxCell>
        <mxCell id="P5eFKpgBpRfASFoSdlE7-68" value="" style="rounded=0;whiteSpace=wrap;html=1;fillColor=#e3c800;strokeColor=#B09500;fontColor=#000000;" parent="P5eFKpgBpRfASFoSdlE7-64" vertex="1">
          <mxGeometry x="57" width="20.9" height="60" as="geometry" />
        </mxCell>
        <mxCell id="P5eFKpgBpRfASFoSdlE7-69" value="" style="rounded=0;whiteSpace=wrap;html=1;fillColor=#fff2cc;strokeColor=#d6b656;" parent="P5eFKpgBpRfASFoSdlE7-64" vertex="1">
          <mxGeometry x="76" width="20.9" height="60" as="geometry" />
        </mxCell>
        <mxCell id="YQTOVVKo7JBdZTNxTnHK-1" value="" style="shape=image;html=1;verticalAlign=top;verticalLabelPosition=bottom;labelBackgroundColor=#ffffff;imageAspect=0;aspect=fixed;image=https://cdn4.iconfinder.com/data/icons/evil-icons-user-interface/64/download-128.png;fontColor=#000000;strokeWidth=6;" parent="P5eFKpgBpRfASFoSdlE7-64" vertex="1">
          <mxGeometry x="112" y="20" width="60" height="60" as="geometry" />
        </mxCell>
        <mxCell id="P5eFKpgBpRfASFoSdlE7-27" value="&lt;div style=&quot;font-size: 17px;&quot;&gt;Hyperparameter search &lt;br style=&quot;font-size: 17px;&quot;&gt;&lt;/div&gt;&lt;div style=&quot;font-size: 17px;&quot;&gt;for all `(f, g)`&lt;/div&gt;" style="text;html=1;strokeColor=none;fillColor=none;align=center;verticalAlign=middle;whiteSpace=wrap;rounded=0;fontStyle=1;fontSize=17;" parent="P5eFKpgBpRfASFoSdlE7-64" vertex="1">
          <mxGeometry y="70" width="220" height="40" as="geometry" />
        </mxCell>
        <mxCell id="P5eFKpgBpRfASFoSdlE7-1" value="`r = 0.25`" style="rounded=0;whiteSpace=wrap;html=1;fillColor=#fff2cc;strokeColor=#d6b656;fontStyle=1;fontSize=20;" parent="1" vertex="1">
          <mxGeometry x="134" y="110" width="97" height="60" as="geometry" />
        </mxCell>
        <mxCell id="P5eFKpgBpRfASFoSdlE7-74" value="&lt;font style=&quot;font-size: 23px;&quot;&gt;&lt;b&gt;Train set&lt;/b&gt;&lt;/font&gt;" style="text;html=1;strokeColor=none;fillColor=none;align=center;verticalAlign=middle;whiteSpace=wrap;rounded=0;" parent="1" vertex="1">
          <mxGeometry x="213.5" y="58" width="206.5" height="30" as="geometry" />
        </mxCell>
        <mxCell id="YQTOVVKo7JBdZTNxTnHK-6" value="&lt;font style=&quot;font-size: 23px;&quot;&gt;&lt;b&gt;Fixed validation set&lt;/b&gt;&lt;/font&gt;" style="text;whiteSpace=wrap;html=1;" parent="1" vertex="1">
          <mxGeometry x="463" y="50" width="220" height="40" as="geometry" />
        </mxCell>
      </root>
    </mxGraphModel>
  </diagram>
</mxfile>
